# xmcd
#
# Track frame offsets: 
#        150
#        12087
#        28456
#        42167
#        56223
#        73882
#
# Disc length: 1146 seconds
#
# Revision: 0
# Processed by: cddbd v1.5PL3 Copyright (c) Steve Scherf et al.
# Submitted via: ExactAudioCopy v0.95a5
#
DISCID=54047806
DTITLE=Abigail Washburn - Here In This Room
DYEAR=2004
DGENRE=Bluegrass
TTITLE0=Nobody's Fault But Mine
TTITLE1=Rockabye Dixie
TTITLE2=Santa Anna's Retreat
TTITLE3=Coffee's Cold - Tater Path
TTITLE4=Save Me Child
TTITLE5=Single Drop of Honey
EXTD=
EXTT0=
EXTT1=
EXTT2=
EXTT3=
EXTT4=
EXTT5=
PLAYORDER=
